<?xml version="1.0" encoding="UTF-8"?>
<svg version="1.1" xmlns="http://www.w3.org/2000/svg" width="101" height="97">
<path d="M0 0 C33.33 0 66.66 0 101 0 C101 32.01 101 64.02 101 97 C67.67 97 34.34 97 0 97 C0 64.99 0 32.98 0 0 Z " fill="#13212E" transform="translate(0,0)"/>
<path d="M0 0 C9.9 0 19.8 0 30 0 C30 14.52 30 29.04 30 44 C20.1 44 10.2 44 0 44 C0 51.26 0 58.52 0 66 C-9.9 66 -19.8 66 -30 66 C-30 51.48 -30 36.96 -30 22 C-20.1 22 -10.2 22 0 22 C0 14.74 0 7.48 0 0 Z " fill="#000000" transform="translate(50,17)"/>
</svg>
